<mxfile host="65bd71144e" modified="2021-02-19T17:14:08.031Z" agent="5.0 (Windows NT 10.0; Win64; x64) AppleWebKit/537.36 (KHTML, like Gecko) Code/1.53.2 Chrome/87.0.4280.141 Electron/11.2.1 Safari/537.36" version="14.2.4" etag="1CjxVpn7gxmoDr7kD27M" type="embed">
    <diagram id="5eC-z-0IDCvAClWDeP-q" name="Page-1">
        <mxGraphModel dx="1447" dy="1746" grid="1" gridSize="10" guides="1" tooltips="1" connect="1" arrows="1" fold="1" page="1" pageScale="1" pageWidth="827" pageHeight="1169" math="0" shadow="0">
            <root>
                <mxCell id="0"/>
                <mxCell id="1" parent="0"/>
                <mxCell id="2" value="" style="shape=umlLifeline;participant=umlActor;perimeter=lifelinePerimeter;whiteSpace=wrap;html=1;container=1;collapsible=0;recursiveResize=0;verticalAlign=top;spacingTop=36;outlineConnect=0;size=80;strokeWidth=2;" vertex="1" parent="1">
                    <mxGeometry x="60" y="40" width="40" height="480" as="geometry"/>
                </mxCell>
                <mxCell id="3" value="&lt;b&gt;:Game&lt;/b&gt;" style="shape=umlLifeline;perimeter=lifelinePerimeter;whiteSpace=wrap;html=1;container=1;collapsible=0;recursiveResize=0;outlineConnect=0;strokeWidth=2;fillColor=#FEFECE;" vertex="1" parent="1">
                    <mxGeometry x="160" y="80" width="80" height="440" as="geometry"/>
                </mxCell>
                <mxCell id="8" value="" style="html=1;points=[];perimeter=orthogonalPerimeter;strokeColor=#000000;strokeWidth=2;fillColor=#FEFECE;" vertex="1" parent="3">
                    <mxGeometry x="35" y="80" width="10" height="310" as="geometry"/>
                </mxCell>
                <mxCell id="5" value="&lt;b&gt;:PlayField&lt;/b&gt;" style="shape=umlLifeline;perimeter=lifelinePerimeter;whiteSpace=wrap;html=1;container=1;collapsible=0;recursiveResize=0;outlineConnect=0;strokeWidth=2;fillColor=#FEFECE;" vertex="1" parent="1">
                    <mxGeometry x="280" y="80" width="80" height="440" as="geometry"/>
                </mxCell>
                <mxCell id="25" value="" style="html=1;points=[];perimeter=orthogonalPerimeter;strokeColor=#000000;strokeWidth=2;fillColor=#FEFECE;fontSize=10;" vertex="1" parent="5">
                    <mxGeometry x="35" y="230" width="10" height="40" as="geometry"/>
                </mxCell>
                <mxCell id="26" value="transfer Tetromino" style="html=1;verticalAlign=bottom;startArrow=oval;endArrow=block;startSize=8;fontSize=10;" edge="1" target="25" parent="5">
                    <mxGeometry relative="1" as="geometry">
                        <mxPoint x="-80" y="230" as="sourcePoint"/>
                    </mxGeometry>
                </mxCell>
                <mxCell id="29" value="" style="html=1;points=[];perimeter=orthogonalPerimeter;strokeColor=#000000;strokeWidth=2;fillColor=#FEFECE;fontSize=10;" vertex="1" parent="5">
                    <mxGeometry x="35" y="290" width="10" height="80" as="geometry"/>
                </mxCell>
                <mxCell id="30" value="spawn Tetromino" style="html=1;verticalAlign=bottom;startArrow=oval;endArrow=block;startSize=8;fontSize=10;" edge="1" parent="5" target="29">
                    <mxGeometry relative="1" as="geometry">
                        <mxPoint x="-80" y="290" as="sourcePoint"/>
                    </mxGeometry>
                </mxCell>
                <mxCell id="9" value="start" style="html=1;verticalAlign=bottom;startArrow=oval;endArrow=block;startSize=8;" edge="1" target="8" parent="1">
                    <mxGeometry relative="1" as="geometry">
                        <mxPoint x="80" y="160" as="sourcePoint"/>
                    </mxGeometry>
                </mxCell>
                <mxCell id="10" value="&lt;b&gt;loop&lt;/b&gt;" style="shape=umlFrame;whiteSpace=wrap;html=1;strokeWidth=2;width=50;height=20;fillColor=#FEFECE;strokeColor=#A80036;labelBackgroundColor=none;" vertex="1" parent="1">
                    <mxGeometry x="120" y="180" width="360" height="300" as="geometry"/>
                </mxCell>
                <mxCell id="13" value="" style="html=1;points=[];perimeter=orthogonalPerimeter;strokeColor=#000000;strokeWidth=2;fillColor=#FEFECE;" vertex="1" parent="1">
                    <mxGeometry x="315" y="220" width="10" height="40" as="geometry"/>
                </mxCell>
                <mxCell id="14" value="&amp;nbsp;move Tetromino down" style="html=1;verticalAlign=bottom;startArrow=oval;endArrow=block;startSize=8;align=center;labelBackgroundColor=none;" edge="1" target="13" parent="1">
                    <mxGeometry relative="1" as="geometry">
                        <mxPoint x="200" y="220" as="sourcePoint"/>
                    </mxGeometry>
                </mxCell>
                <mxCell id="16" value="&lt;b&gt;[until Tetromino can't be transferred]&lt;/b&gt;" style="text;html=1;strokeColor=none;fillColor=none;align=center;verticalAlign=middle;whiteSpace=wrap;rounded=0;fontSize=10;labelBackgroundColor=#ffffff;" vertex="1" parent="1">
                    <mxGeometry x="200" y="180" width="190" height="20" as="geometry"/>
                </mxCell>
                <mxCell id="17" value="&lt;b&gt;alt&lt;/b&gt;" style="shape=umlFrame;whiteSpace=wrap;html=1;strokeWidth=2;width=50;height=20;fillColor=#FEFECE;strokeColor=#A80036;" vertex="1" parent="1">
                    <mxGeometry x="140" y="270" width="320" height="190" as="geometry"/>
                </mxCell>
                <mxCell id="18" value="&lt;b&gt;[if Tetromino can't move down]&lt;/b&gt;" style="text;html=1;strokeColor=none;fillColor=none;align=center;verticalAlign=middle;whiteSpace=wrap;rounded=0;fontSize=10;labelBackgroundColor=#ffffff;" vertex="1" parent="1">
                    <mxGeometry x="200" y="270" width="160" height="20" as="geometry"/>
                </mxCell>
                <mxCell id="21" value="&lt;b&gt;:NextField&lt;/b&gt;" style="shape=umlLifeline;perimeter=lifelinePerimeter;whiteSpace=wrap;html=1;container=1;collapsible=0;recursiveResize=0;outlineConnect=0;strokeWidth=2;fillColor=#FEFECE;" vertex="1" parent="1">
                    <mxGeometry x="400" y="80" width="80" height="440" as="geometry"/>
                </mxCell>
                <mxCell id="23" value="" style="html=1;points=[];perimeter=orthogonalPerimeter;strokeColor=#000000;strokeWidth=2;fillColor=#FEFECE;fontSize=10;" vertex="1" parent="21">
                    <mxGeometry x="35" y="330" width="10" height="40" as="geometry"/>
                </mxCell>
                <mxCell id="24" value="get next Tetromino" style="html=1;verticalAlign=bottom;startArrow=oval;endArrow=block;startSize=8;fontSize=10;" edge="1" target="23" parent="1">
                    <mxGeometry relative="1" as="geometry">
                        <mxPoint x="320.42857142857133" y="410" as="sourcePoint"/>
                    </mxGeometry>
                </mxCell>
                <mxCell id="31" value="&lt;font style=&quot;font-size: 12px&quot;&gt;&lt;b&gt;SEQUENCE DIAGRAM Simplified GameLoop&lt;/b&gt;&lt;/font&gt;" style="shape=umlFrame;whiteSpace=wrap;html=1;labelBackgroundColor=none;strokeWidth=2;fillColor=#FEFECE;fontSize=10;width=280;height=30;strokeColor=#A80036;" vertex="1" parent="1">
                    <mxGeometry x="20" y="-10" width="500" height="570" as="geometry"/>
                </mxCell>
            </root>
        </mxGraphModel>
    </diagram>
</mxfile>